<svg width="34.29787234042553" height="26" version="1.1" xmlns="http://www.w3.org/2000/svg" x="0px" y="0px" viewBox="0 0 124 94" enable-background="new 0 0 124 94">
    <g>
        <linearGradient id="SVGID_1_" gradientUnits="userSpaceOnUse" x1="2364.9656" y1="9240.0283" x2="2442.2041" y2="9163.4551"
                        gradientTransform="matrix(1 0 0 1 -2321.9229 -9166.7188)">
            <stop offset="0.4393" style="stop-color: rgb(251, 251, 251); stop-opacity: 0;"/>
            <stop offset="0.5834" style="stop-color: rgb(251, 251, 251);"/>
        </linearGradient>
        <path fill="url(#SVGID_1_)" d="M106.1,10.81c-6.04-3.34-13.14-3.14-18.99,0.53l-3.84,2.41c0,0,0,0,0,0L60.69,27.95
			c-1.15,0.72-1.5,2.25-0.78,3.4c0.47,0.75,1.27,1.15,2.09,1.15c0.45,0,0.9-0.12,1.31-0.38l23.46-14.74c0,0,0,0,0,0l2.96-1.86
			c4.3-2.7,9.53-2.85,13.98-0.39c4.45,2.46,7.1,6.96,7.1,12.04v2.1c1.64-0.06,3.29-0.09,4.93-0.09v-2.01
			C115.75,20.27,112.14,14.15,106.1,10.81z"/>
        <path fill="#FBFBFB" d="M33.75,65.6v-4.61c0-4.32-3.52-7.84-7.84-7.84s-7.84,3.52-7.84,7.84v4.61c0,4.32,3.52,7.84,7.84,7.84
			S33.75,69.92,33.75,65.6z M29.64,65.6c0,2.06-1.67,3.73-3.73,3.73s-3.73-1.67-3.73-3.73v-1.57h0.15c1.98,0,3.58-1.6,3.58-3.58
			v-3.18c2.06,0,3.73,1.67,3.73,3.73V65.6z"/>
        <linearGradient id="SVGID_00000133513578938871765320000014602878273271133829_" gradientUnits="userSpaceOnUse" x1="585.2549" y1="8993.6934" x2="662.4934" y2="8917.1201"
                        gradientTransform="matrix(-1 0 0 -1 664.8056 9014.125)">
            <stop offset="0.4393" style="stop-color: rgb(251, 251, 251); stop-opacity: 0;"/>
            <stop offset="0.5834" style="stop-color: rgb(251, 251, 251);"/>
        </linearGradient>
        <path fill="url(#SVGID_00000133513578938871765320000014602878273271133829_)" d="M16.49,82.93c6.04,3.34,13.14,3.14,18.99-0.53
			l3.84-2.41c0,0,0,0,0,0L61.9,65.79c1.15-0.72,1.5-2.25,0.78-3.4c-0.47-0.75-1.27-1.15-2.09-1.15c-0.45,0-0.9,0.12-1.31,0.38
			L35.82,76.36c0,0,0,0,0,0l-2.96,1.86c-4.3,2.7-9.53,2.85-13.98,0.39c-4.45-2.46-7.1-6.96-7.1-12.04v-2.1
			c-1.64,0.06-3.29,0.09-4.93,0.09v2.01C6.84,73.47,10.45,79.59,16.49,82.93z"/>
        <path fill="#FBFBFB" d="M115.6,24.78c-1.61,0.32-3.23,0.63-4.86,0.94c0.05,0.48,0.08,0.96,0.08,1.45v6.67
			c0,5.08-2.66,9.58-7.1,12.04c-4.45,2.46-9.67,2.31-13.97-0.39L35.48,11.35c-5.85-3.67-12.94-3.87-18.99-0.53
			c-6.04,3.34-9.65,9.46-9.65,16.36v39.39c0,0.87,0.06,1.73,0.17,2.57c1.64-0.25,3.26-0.49,4.88-0.72c-0.08-0.6-0.12-1.22-0.12-1.85
			V59.9c0-5.08,2.66-9.58,7.1-12.04c4.45-2.46,9.67-2.31,13.98,0.39l24.09,15.14l0,0l30.16,18.99c3.07,1.93,6.5,2.9,9.93,2.9
			c3.09,0,6.19-0.79,9.06-2.37c6.04-3.34,9.65-9.46,9.65-16.36V27.17C115.75,26.36,115.7,25.56,115.6,24.78z M110.82,66.56
			c0,5.08-2.66,9.58-7.1,12.04c-4.45,2.46-9.67,2.31-13.97-0.39L35.48,44.08c-5.85-3.67-12.94-3.87-18.99-0.53
			c-1.8,1-3.38,2.24-4.72,3.68V43.6c0-5.08,2.66-9.58,7.1-12.04c4.45-2.46,9.67-2.31,13.98,0.39l54.26,34.02
			c3.07,1.93,6.5,2.9,9.93,2.9c3.09,0,6.19-0.79,9.06-2.37c1.8-1,3.38-2.24,4.72-3.68V66.56z M110.82,50.14
			c0,5.08-2.66,9.58-7.1,12.04c-4.45,2.46-9.67,2.31-13.98-0.39L59.57,42.91v0L35.48,27.77c-5.85-3.67-12.94-3.87-18.99-0.53
			c-1.8,1-3.38,2.24-4.72,3.68v-3.74c0-5.08,2.66-9.58,7.1-12.04c4.45-2.46,9.67-2.31,13.98,0.39l24.09,15.14l0,0l30.16,18.99
			c3.07,1.93,6.5,2.9,9.93,2.9c3.09,0,6.19-0.79,9.06-2.37c1.8-1,3.38-2.24,4.72-3.68V50.14z"/>
    </g>
</svg>
