<svg width="40" height="40" viewBox="0 0 124 94" fill="none" xmlns="http://www.w3.org/2000/svg">
    <path d="M105.26 11.3709C99.22 8.03088 92.12 8.23088 86.27 11.9009L82.43 14.3109L59.85 28.5109C58.7 29.2309 58.35 30.7609 59.07 31.9109C59.54 32.6609 60.34 33.0609 61.16 33.0609C61.61 33.0609 62.06 32.9409 62.47 32.6809L85.93 17.9409L88.89 16.0809C93.19 13.3809 98.42 13.2309 102.87 15.6909C107.32 18.1509 109.97 22.6509 109.97 27.7309V29.8309C111.61 29.7709 113.26 29.7409 114.9 29.7409V27.7309C114.91 20.8309 111.3 14.7109 105.26 11.3709Z"
          fill="url(#paint0_linear_12_548)"/>
    <path d="M32.91 66.1609V61.5509C32.91 57.2309 29.39 53.7109 25.07 53.7109C20.75 53.7109 17.23 57.2309 17.23 61.5509V66.1609C17.23 70.4809 20.75 74.0009 25.07 74.0009C29.39 74.0009 32.91 70.4809 32.91 66.1609ZM28.8 66.1609C28.8 68.2209 27.13 69.8909 25.07 69.8909C23.01 69.8909 21.34 68.2209 21.34 66.1609V64.5909H21.49C23.47 64.5909 25.07 62.9909 25.07 61.0109V57.8309C27.13 57.8309 28.8 59.5009 28.8 61.5609V66.1609Z"
          fill="#FFF"/>
    <path d="M15.65 83.4909C21.69 86.8309 28.79 86.6309 34.64 82.9609L38.48 80.5509L61.06 66.3509C62.21 65.6309 62.56 64.1009 61.84 62.9509C61.37 62.2009 60.57 61.8009 59.75 61.8009C59.3 61.8009 58.85 61.9209 58.44 62.1809L34.98 76.9209L32.02 78.7809C27.72 81.4809 22.49 81.6309 18.04 79.1709C13.59 76.7109 10.94 72.2109 10.94 67.1309V65.0309C9.3 65.0909 7.65 65.1209 6.01 65.1209V67.1309C6 74.0309 9.61 80.1509 15.65 83.4909Z"
          fill="url(#paint1_linear_12_548)"/>
    <path d="M114.76 25.3409C113.15 25.6609 111.53 25.9709 109.9 26.2809C109.95 26.7609 109.98 27.2409 109.98 27.7309V34.4009C109.98 39.4809 107.32 43.9809 102.88 46.4409C98.43 48.9009 93.21 48.7509 88.91 46.0509L34.64 11.9109C28.79 8.24089 21.7 8.04089 15.65 11.3809C9.61 14.7209 6 20.8409 6 27.7409V67.1309C6 68.0009 6.06 68.8609 6.17 69.7009C7.81 69.4509 9.43 69.2109 11.05 68.9809C10.97 68.3809 10.93 67.7609 10.93 67.1309V60.4609C10.93 55.3809 13.59 50.8809 18.03 48.4209C22.48 45.9609 27.7 46.1109 32.01 48.8109L56.1 63.9509L86.26 82.9409C89.33 84.8709 92.76 85.8409 96.19 85.8409C99.28 85.8409 102.38 85.0509 105.25 83.4709C111.29 80.1309 114.9 74.0109 114.9 67.1109V27.7309C114.91 26.9209 114.86 26.1209 114.76 25.3409ZM109.98 67.1209C109.98 72.2009 107.32 76.7009 102.88 79.1609C98.43 81.6209 93.21 81.4709 88.91 78.7709L34.64 44.6409C28.79 40.9709 21.7 40.7709 15.65 44.1109C13.85 45.1109 12.27 46.3509 10.93 47.7909V44.1609C10.93 39.0809 13.59 34.5809 18.03 32.1209C22.48 29.6609 27.7 29.8109 32.01 32.5109L86.27 66.5309C89.34 68.4609 92.77 69.4309 96.2 69.4309C99.29 69.4309 102.39 68.6409 105.26 67.0609C107.06 66.0609 108.64 64.8209 109.98 63.3809V67.1209ZM109.98 50.7009C109.98 55.7809 107.32 60.2809 102.88 62.7409C98.43 65.2009 93.21 65.0509 88.9 62.3509L58.73 43.4709L34.64 28.3309C28.79 24.6609 21.7 24.4609 15.65 27.8009C13.85 28.8009 12.27 30.0409 10.93 31.4809V27.7409C10.93 22.6609 13.59 18.1609 18.03 15.7009C22.48 13.2409 27.7 13.3909 32.01 16.0909L56.1 31.2309L86.26 50.2209C89.33 52.1509 92.76 53.1209 96.19 53.1209C99.28 53.1209 102.38 52.3309 105.25 50.7509C107.05 49.7509 108.63 48.5109 109.97 47.0709V50.7009H109.98Z"
          fill="#44DCB3"/>
    <defs>
        <linearGradient id="paint0_linear_12_548" x1="42.2027" y1="73.8704" x2="119.441" y2="-2.70283" gradientUnits="userSpaceOnUse">
            <stop offset="0.4393" stop-color="#44DCB3" stop-opacity="0"/>
            <stop offset="0.5834" stop-color="#44DCB3"/>
        </linearGradient>
        <linearGradient id="paint1_linear_12_548" x1="78.7107" y1="20.9925" x2="1.4722" y2="97.5658" gradientUnits="userSpaceOnUse">
            <stop offset="0.4393" stop-color="#44DCB3" stop-opacity="0"/>
            <stop offset="0.5834" stop-color="#44DCB3"/>
        </linearGradient>
    </defs>
</svg>
